<svg width="217" height="46" viewBox="0 0 217 46" fill="none" xmlns="http://www.w3.org/2000/svg" preserveAspectRatio="none">
<g clip-path="url(#clip0_77_770)">
<path fill-rule="evenodd" clip-rule="evenodd" d="M203.614 13.1773H208.098L208.076 20.2812H209.06L211.619 13.1773H216.497L212.997 22.5834L217 32.9762H211.729L209.148 25.0172H208.076L208.098 32.9762H203.614V13.1773ZM188.456 13.1773H192.918V20.3031H196.133V13.1773H200.595V32.9981H196.133V25.061H192.918V32.9981H188.456V13.1773ZM172.839 32.9981H177.498L178.066 29.5777H181.26L181.829 32.9981H186.487L182.55 13.1992H176.776L172.839 32.9981ZM179.685 19.2069L180.538 25.2364H178.832L179.685 19.2069ZM160.349 32.9762H165.796C166.999 32.9762 171.942 32.4719 171.964 26.4642C171.964 21.4214 168.114 20.5443 165.621 20.5443H164.79V17.9132H170.848V13.1773H160.306V32.9762H160.349ZM164.812 29.0076V24.5348H165.468C166.036 24.5348 167.458 24.5567 167.458 26.5958C167.458 28.6568 166.036 29.0076 165.468 29.0076H164.812ZM142.589 13.1773H146.482L149.916 17.8255L153.372 13.1554H157.244V32.9762H152.672V20.8951L149.916 24.3594L147.16 20.8951V32.9762H142.589V13.1773ZM133.14 33.2173C138.564 33.2173 140.38 28.1306 140.38 23.0658C140.38 18.001 138.564 12.9142 133.14 12.9142C127.715 12.9142 125.9 18.001 125.9 23.0658C125.9 28.1306 127.715 33.2173 133.14 33.2173ZM133.14 28.4156C131.521 28.4156 130.712 26.53 130.712 23.0438C130.712 19.5577 131.543 17.6721 133.14 17.6721C134.758 17.6721 135.568 19.5577 135.568 23.0438C135.568 26.53 134.758 28.4156 133.14 28.4156ZM112.601 32.9762H117.173V26.4423H118.704C123.231 26.4423 124.631 22.3422 124.631 19.7331C124.631 17.1897 123.013 13.1335 118.704 13.1335H112.579L112.601 32.9762ZM117.173 17.5405H118.266C119.316 17.5405 119.95 18.1764 119.95 19.8208C119.95 21.9476 118.835 22.101 118.266 22.101H117.173V17.5405ZM97.5089 13.1773H109.998V32.9981H105.427V17.9571H102.08V32.9981H97.5089V13.1773ZM88.1036 20.8294C88.8473 20.8294 90.1815 20.347 90.1815 18.8999C90.1815 17.1897 88.6286 17.0801 88.1692 17.0801C87.6443 17.0801 86.6381 17.1678 85.6539 17.6501L85.6101 13.3527C87.1631 12.9581 88.2786 12.8484 89.6128 12.8484C93.375 12.8484 95.0373 15.4795 95.0373 18.0448C95.0373 20.5443 93.6156 22.0572 92.1938 22.6273V22.8027C93.5499 23.2412 95.3435 24.5129 95.3435 27.5605C95.3435 31.3098 92.7407 33.3708 89.416 33.3708C87.6443 33.3489 86.485 33.1077 85.0852 32.3403L85.1727 28.2183C86.485 28.7884 87.3381 28.8322 88.213 28.8322C89.6785 28.8322 90.269 27.7359 90.269 26.9466C90.269 25.8284 89.5472 25.1049 87.9943 25.1049H86.1569V20.8294H88.1036ZM70.1023 32.9762H74.7175L75.308 29.5338H78.5233L79.092 32.9762H83.7072L79.7701 13.1554H73.9957L70.1023 32.9762ZM76.9048 19.1411L77.7797 25.1926H76.0298L76.9048 19.1411ZM61.2438 13.1773H70.6491V18.1106H65.9246V32.9981H61.2438V13.1773ZM22.9227 0C10.2583 0 0 10.2831 0 22.9781C0 35.6072 10.2802 45.9342 22.9227 45.9342C35.5214 45.9342 45.8235 35.6511 45.8235 22.9781C45.8016 10.2831 35.5214 0 22.9227 0ZM22.9227 44.7722C10.9145 44.7722 1.15926 34.9933 1.15926 22.9781C1.15926 10.9409 10.9145 1.16206 22.9227 1.16206C34.909 1.16206 44.6642 10.9409 44.6642 22.9781C44.6642 34.9714 34.8871 44.7722 22.9227 44.7722Z" fill="white"/>
<path fill-rule="evenodd" clip-rule="evenodd" d="M13.6047 9.29648C19.1823 6.81888 25.9847 6.97236 29.6375 8.59486C30.7967 9.12108 31.5623 9.44996 31.9123 10.0858C28.1283 9.07722 26.4878 8.87989 23.3163 8.9676C18.8105 9.0553 12.8173 10.8532 10.5207 12.2126L9.51452 13.4624C12.8173 11.511 18.9854 10.2174 22.3976 10.1077C26.2035 10.0639 29.1782 10.4147 31.8904 11.4013C31.7373 12.103 31.3873 12.4538 30.7968 12.8046C19.9041 10.8971 13.4735 13.1554 7.65534 16.9485L7.23975 18.1983C13.7141 13.7255 21.6758 12.4976 29.3313 13.8351C26.5753 14.7998 23.2944 15.0191 20.5603 15.6549C18.2199 16.1811 16.9513 16.3565 13.8235 17.409C10.6519 18.4614 8.77085 19.5138 7.61159 20.8951C7.0429 21.531 6.62731 22.2765 6.51795 23.0877C6.4742 23.5701 6.49608 24.0086 6.64919 24.4252C6.78042 24.7979 7.06477 25.1706 7.39286 25.5434C7.02102 26.1792 6.69293 27.0124 7.23975 27.9771C7.48035 28.4376 8.09279 28.8761 8.68336 29.3146L8.50837 29.797C8.42088 30.367 8.35527 31.0248 8.7271 31.5949C9.36141 32.6034 10.1488 33.2831 11.3737 33.919C11.5706 34.7522 11.8549 35.4099 12.4892 36.0019C13.8453 37.2517 16.8857 39.6635 22.3101 40.0362C26.3784 40.2993 29.2657 39.0715 30.3812 38.5453L31.7154 37.8437C29.4406 38.7426 25.6348 39.2908 22.507 39.0277C17.9793 38.6549 13.911 35.695 13.4079 34.8179C13.561 34.9276 13.7797 34.9933 13.9547 35.081C19.2698 37.6463 26.116 39.0496 34.9088 35.4538L35.6306 34.7521C27.6471 37.2297 20.6696 37.164 13.1673 33.2174C13.2548 32.8446 13.4079 32.5157 13.7578 32.2526C15.6827 33.1077 17.52 33.8093 19.7729 34.2479C22.3976 34.7302 25.3723 34.8399 27.8439 34.7302C30.3155 34.6206 35.2369 33.3928 37.5554 32.1649C37.7742 31.9895 37.8835 31.6606 38.0804 31.4414C33.5527 33.0858 28.1501 33.8751 24.8911 33.6339C21.7195 33.3928 18.898 33.02 15.1577 31.3098C15.8795 31.0248 16.6232 30.7836 17.3669 30.5644C19.8166 31.3098 22.332 31.7703 25.2848 31.9018C28.2158 32.0334 35.0838 30.9371 39.3928 28.3279C39.524 27.9552 39.6552 27.5386 39.6552 27.5386C39.6552 27.5386 33.6402 30.7617 26.8378 30.7617C23.6662 30.7617 21.7195 30.3012 20.2759 29.9504C23.4694 29.3584 27.5158 28.8761 32.0435 27.7359C34.3401 27.144 37.1617 25.8065 38.4522 24.6883C39.5459 23.7016 40.3989 22.408 40.1146 21.1144C40.0489 20.7636 39.5677 19.9304 38.999 19.6454C39.5677 18.9218 39.5021 18.3079 39.4365 17.7817C39.3709 17.3651 39.1959 16.9266 38.9553 16.5319C38.5616 16.0057 38.0804 15.5672 37.5117 15.2383C37.6211 14.6683 37.5554 14.0982 37.293 13.572C36.7243 12.6073 35.7181 11.7741 33.9902 10.8971C33.9027 10.5462 33.684 10.0858 33.334 9.64729C31.1467 7.47665 27.5596 6.44615 24.563 6.38037C24.388 6.38037 24.2349 6.38037 24.0599 6.38037C20.5384 6.38037 17.6949 7.16969 15.9451 8.00287C15.0046 8.39753 14.3047 8.81412 13.6047 9.29648ZM33.7496 12.2126C34.4933 12.695 35.3463 13.4185 35.4557 14.164C34.6464 13.857 33.7933 13.5501 32.984 13.3308C33.2465 13.0458 33.6402 12.5853 33.7496 12.2126ZM29.7469 15.5672C30.6655 15.2164 31.278 14.8437 31.8029 14.4052C33.0059 14.734 34.1214 15.1287 35.0401 15.5234C34.887 15.7645 33.9683 16.5977 33.684 16.5977C33.6621 16.5977 33.6621 16.5977 33.6402 16.5977C32.3716 16.2469 31.2561 15.8303 29.7469 15.5672ZM36.943 16.6416C37.6648 17.2555 37.8835 17.694 37.5336 18.3518C37.0524 18.001 36.5493 17.8256 35.9806 17.5405C36.3087 17.2774 36.6368 16.9924 36.943 16.6416ZM14.764 19.0972C18.0887 18.1106 22.0039 17.3651 25.5254 16.9266C27.9533 16.6196 29.2438 16.9047 31.5186 17.5186C25.6129 19.0972 19.7947 19.6015 14.239 21.246C9.75512 22.5396 8.57399 24.184 8.55212 24.184C6.58357 21.4433 13.4516 19.4919 14.764 19.0972ZM17.9137 22.3861C22.8569 21.3117 27.4283 20.654 29.3313 20.1716C31.6279 19.6015 33.2246 19.0753 34.3401 18.5491C34.3839 18.4614 36.1993 19.3604 36.3962 19.5577C35.7837 20.062 34.9307 20.5005 33.9902 20.8074C31.1905 21.816 26.0941 22.8904 23.4037 23.307C20.6915 23.7674 18.4168 24.0963 15.3983 24.9075C13.6704 25.368 12.4892 25.8942 11.6362 26.4643C11.0019 26.0915 10.63 25.9819 10.0395 25.4995C12.1174 23.7236 16.3607 22.7369 17.9137 22.3861ZM16.6669 26.7274C21.3696 25.5653 25.5035 25.368 31.2123 23.8113C33.9683 23.0877 35.9587 22.2984 37.2274 21.3556C37.4023 21.2021 37.5992 21.0486 37.796 20.8951C39.4584 23.4604 33.2246 25.4338 28.9813 26.3546C26.6409 26.837 23.3819 27.429 22.3101 27.6044C19.5323 28.0648 18.6355 28.306 16.7107 28.8542C15.7483 28.4814 14.7859 28.0868 13.911 27.6263C14.7859 27.2536 15.7483 26.9685 16.6669 26.7274ZM10.1707 27.5825C9.97385 27.7359 9.73325 27.9114 9.55827 28.0868C9.14269 27.8456 8.70523 27.3194 8.92396 26.837C9.33954 27.1001 9.66763 27.3194 10.1707 27.5825ZM12.1174 28.5691C12.9267 28.9419 13.736 29.2927 14.5234 29.6435C13.9984 29.8408 13.4954 30.082 13.036 30.367C12.4017 30.0162 11.7674 29.6654 11.1331 29.2927C11.3956 29.0515 11.7455 28.8103 12.1174 28.5691ZM11.7893 31.3756C11.5924 31.6387 11.4612 31.858 11.3956 32.1211C10.7175 31.551 10.4113 31.1125 10.4332 30.5863C10.8925 30.8932 11.3518 31.1344 11.7893 31.3756Z" fill="white"/>
</g>
<defs>
<clipPath id="clip0_77_770">
<rect width="217" height="46" fill="white"/>
</clipPath>
</defs>
</svg>
