<svg width="180" height="28" viewBox="0 0 180 28" fill="none" xmlns="http://www.w3.org/2000/svg">
<g clip-path="url(#clip0_77_782)">
<path fill-rule="evenodd" clip-rule="evenodd" d="M20.6742 17.738C20.6742 23.6272 16.2995 27.7179 10.3371 27.7179C4.37475 27.7179 0 23.6272 0 17.738C0 11.8489 4.37475 7.75819 10.3371 7.75819C16.2995 7.79345 20.6742 11.8489 20.6742 17.738ZM60.929 17.738C60.929 23.6272 56.5543 27.7179 50.5919 27.7179C44.6295 27.7179 40.2548 23.6625 40.2548 17.738C40.2548 11.8489 44.6295 7.75819 50.5919 7.75819C56.5543 7.79345 60.929 11.8489 60.929 17.738ZM81.9208 15.5516V27.0479H76.911V16.6096C76.911 13.6121 75.4998 12.3778 73.0655 12.3778C70.5253 12.3778 68.6907 13.7884 68.6907 17.8791V27.0831H63.6809V8.39295H68.6554V11.2141H68.7613C69.9961 9.09824 72.1129 7.79345 74.8295 7.79345C78.922 7.79345 81.9208 10.0151 81.9208 15.5516ZM157.597 8.35768V27.0479H152.587V19.5013H144.543V27.0479H139.533V8.35768H144.543V15.1637H152.587V8.35768H157.597ZM130.255 8.35768V11.073H130.149C129.267 9.20403 126.903 7.75819 123.904 7.75819C119 7.75819 114.978 11.2846 114.978 17.6675C114.978 24.0856 118.859 27.6826 123.904 27.6826C126.974 27.6826 129.161 26.272 130.149 24.5088H130.255V27.0479H135.265V8.35768H130.255ZM103.689 8.18136C100.619 8.18136 98.2556 9.59194 97.0208 11.8489H96.9149C97.0913 7.72292 98.5025 5.9597 103.336 5.466L110.851 4.76071V0L102.524 0.634761C94.3747 1.26952 91.9757 6.84131 91.9757 15.6574C91.9757 23.4861 96.5268 27.6826 102.419 27.6826C108.275 27.6826 112.756 23.4861 112.756 17.6675C112.72 11.8489 108.628 8.18136 103.689 8.18136ZM22.4735 8.35768V12.5894H32.3167L22.2619 23.063V27.0831H39.02V22.8514H28.4712L38.5613 12.3426V8.35768H22.4735ZM125.174 23.1688C122.176 23.1688 120.2 20.9118 120.2 17.8086C120.2 14.6348 122.14 12.3426 125.174 12.3426C128.173 12.3426 130.255 14.5995 130.255 17.7733C130.255 20.8766 128.173 23.1688 125.174 23.1688ZM5.25676 17.738C5.25676 20.9824 7.26774 23.0982 10.3371 23.0982C13.4065 23.0982 15.4175 20.9824 15.4175 17.738C15.4175 14.4937 13.4065 12.3778 10.3371 12.3778C7.26774 12.3778 5.25676 14.4937 5.25676 17.738ZM45.5116 17.738C45.5116 20.9824 47.5225 23.0982 50.5919 23.0982C53.6613 23.0982 55.6723 20.9824 55.6723 17.738C55.6723 14.4937 53.6613 12.3778 50.5919 12.3778C47.5225 12.3778 45.5116 14.4937 45.5116 17.738ZM102.313 23.1688C99.4198 23.1688 97.1619 20.9824 97.1619 17.738C97.1619 14.4232 99.4198 12.4836 102.313 12.4836C105.206 12.4836 107.464 14.4232 107.464 17.738C107.464 20.9824 105.206 23.1688 102.313 23.1688ZM173.65 27.0479L166.876 18.0907V27.0479H161.866V8.35768H166.876V16.0806L173.12 8.35768H179.33L171.639 16.8564L180.035 27.0479H173.65Z" fill="white"/>
</g>
<defs>
<clipPath id="clip0_77_782">
<rect width="180" height="28" fill="white"/>
</clipPath>
</defs>
</svg>
