<svg viewBox="0 0 218 34" xmlns="http://www.w3.org/2000/svg" xmlns:xlink="http://www.w3.org/1999/xlink" width="218.000000" height="34.000000" fill="none" preserveAspectRatio="none">
	<rect id="OzonBankLogo 1" width="218.000000" height="34.000000" x="0.000000" y="0.000000" fill="rgb(255,255,255)" fill-opacity="0" />
	<path id="Vector" d="M25.0388 21.539C25.0388 28.6902 19.7405 33.6574 12.5194 33.6574C5.29831 33.6574 0 28.6902 0 21.539C0 14.3879 5.29831 9.42066 12.5194 9.42066C19.7405 9.46348 25.0388 14.3879 25.0388 21.539ZM73.7918 21.539C73.7918 28.6902 68.4935 33.6574 61.2724 33.6574C54.0513 33.6574 48.753 28.733 48.753 21.539C48.753 14.3879 54.0513 9.42066 61.2724 9.42066C68.4935 9.46348 73.7918 14.3879 73.7918 21.539ZM99.2152 18.8841L99.2152 32.8438L93.1478 32.8438L93.1478 20.1688C93.1478 16.529 91.4386 15.0302 88.4904 15.0302C85.4139 15.0302 83.1921 16.7431 83.1921 21.7103L83.1921 32.8867L77.1246 32.8867L77.1246 10.1914L83.1493 10.1914L83.1493 13.6171L83.2775 13.6171C84.773 11.0479 87.3367 9.46348 90.6268 9.46348C95.5833 9.46348 99.2152 12.1612 99.2152 18.8841ZM190.867 10.1486L190.867 32.8438L184.8 32.8438L184.8 23.6801L175.058 23.6801L175.058 32.8438L168.991 32.8438L168.991 10.1486L175.058 10.1486L175.058 18.4131L184.8 18.4131L184.8 10.1486L190.867 10.1486ZM157.753 10.1486L157.753 13.4458L157.625 13.4458C156.557 11.1763 153.694 9.42066 150.062 9.42066C144.123 9.42066 139.252 13.7028 139.252 21.4534C139.252 29.2469 143.952 33.6146 150.062 33.6146C153.779 33.6146 156.428 31.9018 157.625 29.7607L157.753 29.7607L157.753 32.8438L163.82 32.8438L163.82 10.1486L157.753 10.1486ZM125.579 9.93451C121.861 9.93451 118.998 11.6474 117.503 14.3879L117.375 14.3879C117.588 9.37783 119.298 7.23678 125.151 6.63728L134.252 5.78086L134.252 0L124.169 0.770781C114.298 1.54156 111.393 8.30731 111.393 19.0126C111.393 28.5189 116.905 33.6146 124.04 33.6146C131.133 33.6146 136.56 28.5189 136.56 21.4534C136.517 14.3879 131.561 9.93451 125.579 9.93451ZM27.218 10.1486L27.218 15.2872L39.1392 15.2872L26.9616 28.005L26.9616 32.8867L47.2575 32.8867L47.2575 27.7481L34.4818 27.7481L46.7021 14.9874L46.7021 10.1486L27.218 10.1486ZM151.6 28.1335C147.968 28.1335 145.575 25.393 145.575 21.6247C145.575 17.7708 147.926 14.9874 151.6 14.9874C155.232 14.9874 157.753 17.728 157.753 21.5819C157.753 25.3501 155.232 28.1335 151.6 28.1335ZM6.36652 21.539C6.36652 25.4786 8.80204 28.0479 12.5194 28.0479C16.2368 28.0479 18.6723 25.4786 18.6723 21.539C18.6723 17.5995 16.2368 15.0302 12.5194 15.0302C8.80204 15.0302 6.36652 17.5995 6.36652 21.539ZM55.1196 21.539C55.1196 25.4786 57.5551 28.0479 61.2724 28.0479C64.9898 28.0479 67.4253 25.4786 67.4253 21.539C67.4253 17.5995 64.9898 15.0302 61.2724 15.0302C57.5551 15.0302 55.1196 17.5995 55.1196 21.539ZM123.912 28.1335C120.408 28.1335 117.674 25.4786 117.674 21.539C117.674 17.5139 120.408 15.1587 123.912 15.1587C127.416 15.1587 130.151 17.5139 130.151 21.539C130.151 25.4786 127.416 28.1335 123.912 28.1335ZM210.309 32.8438L202.105 21.9673L202.105 32.8438L196.038 32.8438L196.038 10.1486L202.105 10.1486L202.105 19.5264L209.668 10.1486L217.188 10.1486L207.873 20.4685L218.043 32.8438L210.309 32.8438Z" fill="rgb(255,255,255)" fill-rule="evenodd" />
</svg>
