<svg width="98" height="30" viewBox="0 0 98 30" fill="none" xmlns="http://www.w3.org/2000/svg">
<g clip-path="url(#clip0_77_775)">
<path d="M19.9444 19.8446L14.9932 19.8194L10.0292 19.7816L10.0165 9.8908C10.0165 4.44771 9.96589 0 9.9279 0C9.87725 0 7.63587 2.20496 4.9133 4.9013L0 9.79V19.8068V29.811H4.97661H9.96589L14.9425 24.8593L19.9318 19.895" fill="white"/>
<path d="M69.0396 4.56111C64.4935 5.4305 61.4417 8.41664 60.6059 12.8265C59.5296 18.4838 63.1132 23.9773 68.6217 25.1113C70.0653 25.4011 72.1421 25.3759 73.421 25.0357C74.3328 24.7837 76.055 23.9899 76.8907 23.4229C77.5492 22.9693 79.2334 21.2936 79.1828 21.1424C79.1448 21.029 76.3462 18.1814 76.1563 18.068C76.0803 18.0176 75.7257 18.3074 75.3712 18.7106C74.6114 19.5296 73.9909 19.958 73.0285 20.273C70.2932 21.2054 67.406 20.084 66.2664 17.6397C65.4433 15.8757 65.4559 13.8723 66.3044 12.0958C67.0641 10.483 68.3051 9.53801 70.1286 9.24822C71.8002 8.97103 73.649 9.53801 75.0039 10.7476L75.6624 11.3272L77.22 9.77741C78.5243 8.47964 78.7649 8.17724 78.6636 8.00085C78.4736 7.64805 76.8907 6.36288 75.9916 5.82109C75.5484 5.55649 74.6367 5.1785 73.9782 4.95171C72.9145 4.61151 72.5726 4.56111 71.053 4.52332C70.1286 4.52332 69.2169 4.53592 69.0396 4.56111Z" fill="white"/>
<path d="M39.8257 14.9181V24.8341H42.4216H45.0302V17.1231V9.41201H49.0318H53.0333V17.1231V24.8341H55.6419H58.2505V14.9181V4.9895H49.0444H39.8383V14.9181H39.8257Z" fill="white"/>
<path d="M81.0819 14.9181L81.1073 24.8341H86.6664C92.846 24.8341 93.3398 24.7837 94.8847 24.0277C96.9362 23.0197 97.9999 21.1928 97.9999 18.6476C97.9999 15.4095 96.2777 13.3305 93.0106 12.6627C92.3015 12.5116 91.3011 12.4612 89.1737 12.4612H86.3118V10.9492V9.43721H91.3011H96.2777V7.20706V4.9895H88.6545H81.0439L81.0819 14.9181ZM91.719 16.9593C92.4408 17.3499 92.7067 17.7908 92.7067 18.635C92.7067 19.4792 92.4408 19.9202 91.719 20.3108C91.2504 20.5628 90.9845 20.588 88.7558 20.6258L86.2991 20.6762V18.6476V16.6065L88.7558 16.6569C90.9718 16.6821 91.2504 16.7073 91.719 16.9593Z" fill="white"/>
<path d="M19.628 20.021V24.9475V29.874L24.6426 24.8845L29.6572 19.895V10.0168V0.113403H24.6679H19.6913L14.7653 4.98951C12.0554 7.68585 9.83936 9.90341 9.83936 9.92861C9.83936 9.95381 12.0427 9.97901 14.7273 9.97901H19.628V14.9685V19.958" fill="white"/>
</g>
<defs>
<clipPath id="clip0_77_775">
<rect width="98" height="30" fill="white"/>
</clipPath>
</defs>
</svg>
