<svg viewBox="0 0 117 36" xmlns="http://www.w3.org/2000/svg" xmlns:xlink="http://www.w3.org/1999/xlink" width="117.000000" height="36.000000" fill="none">
	<rect id="PSBLogo 1" width="117.000000" height="36.000000" x="0.000000" y="0.000000" fill="rgb(255,255,255)" fill-opacity="0" />
	<g id="Group">
		<path id="Vector" d="M23.8112 23.8135L17.9 23.7833L11.9736 23.7379L11.9585 11.869C11.9585 5.33725 11.898 0 11.8527 0C11.7922 0 9.11629 2.64595 5.86587 5.88156L0 11.748L0 23.7682L0 35.7732L5.94146 35.7732L11.898 35.7732L17.8395 29.8312L23.7961 23.874" fill="rgb(255,255,255)" fill-rule="nonzero" />
		<path id="Vector" d="M82.4246 5.47334C76.9971 6.5166 73.3537 10.1 72.3559 15.3919C71.0708 22.1806 75.3493 28.7728 81.9257 30.1336C83.6492 30.4813 86.1286 30.4511 87.6555 30.0428C88.744 29.7404 90.8001 28.7879 91.7979 28.1075C92.584 27.5632 94.5948 25.5523 94.5343 25.3709C94.4889 25.2348 91.1478 21.8177 90.921 21.6817C90.8303 21.6212 90.407 21.9689 89.9837 22.4528C89.0766 23.4355 88.3358 23.9496 87.1868 24.3276C83.9213 25.4465 80.4743 24.1008 79.1137 21.1676C78.131 19.0508 78.1461 16.6468 79.159 14.5149C80.0661 12.5796 81.5477 11.4456 83.7248 11.0979C85.7204 10.7652 87.9276 11.4456 89.5453 12.8971L90.3314 13.5926L92.191 11.7329C93.7481 10.1756 94.0354 9.81269 93.9144 9.60102C93.6877 9.17766 91.7979 7.63545 90.7245 6.98531C90.1954 6.66779 89.1068 6.2142 88.3207 5.94205C87.0508 5.53382 86.6426 5.47334 84.8284 5.42798C83.7248 5.42798 82.6362 5.4431 82.4246 5.47334Z" fill="rgb(255,255,255)" fill-rule="nonzero" />
		<path id="Vector" d="M47.5469 17.9016L47.5469 29.8008L50.6461 29.8008L53.7605 29.8008L53.7605 20.5476L53.7605 11.2943L58.5378 11.2943L63.3152 11.2943L63.3152 20.5476L63.3152 29.8008L66.4295 29.8008L69.5439 29.8008L69.5439 17.9016L69.5439 5.9873L58.5529 5.9873L47.562 5.9873L47.562 17.9016L47.5469 17.9016Z" fill="rgb(255,255,255)" fill-rule="nonzero" />
		<path id="Vector" d="M96.8022 17.9016L96.8324 29.8008L103.469 29.8008C110.847 29.8008 111.437 29.7404 113.281 28.8332C115.73 27.6236 117 25.4312 117 22.3771C117 18.4913 114.944 15.9965 111.044 15.1952C110.197 15.0138 109.003 14.9533 106.463 14.9533L103.046 14.9533L103.046 13.1389L103.046 11.3246L109.003 11.3246L114.944 11.3246L114.944 8.64837L114.944 5.9873L105.843 5.9873L96.7568 5.9873L96.8022 17.9016ZM109.502 20.351C110.363 20.8197 110.681 21.3489 110.681 22.3619C110.681 23.375 110.363 23.9041 109.502 24.3729C108.942 24.6753 108.625 24.7055 105.964 24.7509L103.031 24.8113L103.031 22.3771L103.031 19.9277L105.964 19.9881C108.61 20.0184 108.942 20.0486 109.502 20.351Z" fill="rgb(255,255,255)" fill-rule="nonzero" />
		<path id="Vector" d="M23.4335 24.0254L23.4335 29.9372L23.4335 35.849L29.4203 29.8616L35.4071 23.8742L35.4071 12.0203L35.4071 0.13623L29.4505 0.13623L23.5091 0.13623L17.6281 5.98755C14.3928 9.22317 11.7471 11.8842 11.7471 11.9145C11.7471 11.9447 14.3776 11.975 17.5827 11.975L23.4335 11.975L23.4335 17.9624L23.4335 23.9498" fill="rgb(255,255,255)" fill-rule="nonzero" />
	</g>
</svg>
