<svg width="133" height="50" viewBox="0 0 133 50" fill="none" xmlns="http://www.w3.org/2000/svg" preserveAspectRatio="none">
<g clip-path="url(#clip0_77_897)">
<path d="M35.822 12C28.5114 12 22.5964 16.998 22.5964 25.0133C22.5964 32.9489 28.5114 37.9601 35.822 37.9601C43.1326 37.9601 49.0476 32.9622 49.0476 25.0133C49.0343 16.998 43.1193 12 35.822 12ZM35.822 31.6861C32.0737 31.6861 29.8007 28.682 29.8007 24.9734C29.8007 21.2648 32.0737 18.2474 35.822 18.2474C39.5704 18.2474 41.8566 21.2515 41.8566 24.9601C41.8566 28.682 39.5704 31.6861 35.822 31.6861ZM130.727 31.5532L130.687 21.8497C130.687 16.1472 127.989 12.0133 118.246 12.0133C115.029 12.0133 112.078 12.7045 109.766 13.8211V19.2975C111.387 18.3272 113.979 17.41 117.315 17.41C120.838 17.41 123.682 18.5665 123.682 21.8497V22.6207C122.18 21.637 119.841 21.0123 117.116 21.0123C111.334 21.0123 107.493 24.8006 107.493 29.4795C107.493 34.1585 111.135 37.9468 116.917 37.9468C120.585 37.9468 123.39 36.4448 124.958 34.1585C125.211 36.1391 126.327 37.9468 129.717 37.9468C130.9 37.9468 132.016 37.7342 132.987 37.4018V33.4939C131.737 33.4939 130.727 32.8957 130.727 31.5532ZM118.671 32.4172C116.225 32.4172 114.63 30.9284 114.63 29.0808C114.63 27.2331 115.986 25.6513 118.764 25.6513C121.423 25.6513 123.696 27.2065 123.696 27.2065C123.696 29.7188 122.207 32.4172 118.671 32.4172ZM0 18.7924H7.28403V37.4018H14.2756V18.7924H21.5597V12.545H0V18.7924ZM104.143 12.545H97.1248C97.1248 18.819 94.1341 21.8231 89.7212 21.8231H87.7274V12.545H80.6959V37.4018H87.7274V27.5521H91.715L97.5768 37.4018H105.313L98.1217 25.4652C101.618 23.046 104.143 18.5399 104.143 12.545ZM67.8425 23.1524C66.6196 23.7638 64.8518 24.1759 63.403 24.1759C60.7578 24.1759 58.7773 22.0225 58.7773 19.5501C58.7773 17.8088 58.7773 12.5849 58.7773 12.5849H51.7459V19.5501C51.7459 26.9008 56.1721 30.0644 62.3529 30.0644C64.2138 30.0644 66.3006 29.5992 67.8691 29.0675V37.4018H74.8873V12.545H67.8558V23.1524H67.8425Z" fill="white"/>
</g>
<defs>
<clipPath id="clip0_77_897">
<rect width="133" height="26" fill="white" transform="translate(0 12)"/>
</clipPath>
</defs>
</svg>
