<svg viewBox="0 0 133 26" xmlns="http://www.w3.org/2000/svg" xmlns:xlink="http://www.w3.org/1999/xlink" width="133.000000" height="26.000000" fill="none">
	<rect id="TockaBankLogo 1" width="133.000000" height="26.000000" x="0.000000" y="0.000000" fill="rgb(255,255,255)" fill-opacity="0" />
	<path id="Vector" d="M35.822 0C28.5114 0 22.5964 4.99796 22.5964 13.0133C22.5964 20.9489 28.5114 25.9601 35.822 25.9601C43.1326 25.9601 49.0476 20.9622 49.0476 13.0133C49.0343 4.99796 43.1193 0 35.822 0ZM35.822 19.6861C32.0737 19.6861 29.8007 16.682 29.8007 12.9734C29.8007 9.26483 32.0737 6.24744 35.822 6.24744C39.5704 6.24744 41.8566 9.25153 41.8566 12.9601C41.8566 16.682 39.5704 19.6861 35.822 19.6861ZM130.727 19.5532L130.687 9.84969C130.687 4.14724 127.989 0.0132924 118.246 0.0132924C115.029 0.0132924 112.078 0.704499 109.766 1.82106L109.766 7.29755C111.387 6.3272 113.979 5.41002 117.315 5.41002C120.838 5.41002 123.682 6.56646 123.682 9.84969L123.682 10.6207C122.18 9.63701 119.841 9.01227 117.116 9.01227C111.334 9.01227 107.493 12.8006 107.493 17.4795C107.493 22.1585 111.135 25.9468 116.917 25.9468C120.585 25.9468 123.39 24.4448 124.958 22.1585C125.211 24.1391 126.327 25.9468 129.717 25.9468C130.9 25.9468 132.016 25.7342 132.987 25.4018L132.987 21.4939C131.737 21.4939 130.727 20.8957 130.727 19.5532ZM118.671 20.4172C116.225 20.4172 114.63 18.9284 114.63 17.0808C114.63 15.2331 115.986 13.6513 118.764 13.6513C121.423 13.6513 123.696 15.2065 123.696 15.2065C123.696 17.7188 122.207 20.4172 118.671 20.4172ZM0 6.79243L7.28403 6.79243L7.28403 25.4018L14.2756 25.4018L14.2756 6.79243L21.5597 6.79243L21.5597 0.54499L0 0.54499L0 6.79243ZM104.143 0.54499L97.1248 0.54499C97.1248 6.81902 94.1341 9.82311 89.7212 9.82311L87.7274 9.82311L87.7274 0.54499L80.6959 0.54499L80.6959 25.4018L87.7274 25.4018L87.7274 15.5521L91.715 15.5521L97.5768 25.4018L105.313 25.4018L98.1217 13.4652C101.618 11.046 104.143 6.53988 104.143 0.54499ZM67.8425 11.1524C66.6196 11.7638 64.8518 12.1759 63.403 12.1759C60.7578 12.1759 58.7773 10.0225 58.7773 7.5501C58.7773 5.80879 58.7773 0.584867 58.7773 0.584867L51.7459 0.584867L51.7459 7.5501C51.7459 14.9008 56.1721 18.0644 62.3529 18.0644C64.2138 18.0644 66.3006 17.5992 67.8691 17.0675L67.8691 25.4018L74.8873 25.4018L74.8873 0.54499L67.8558 0.54499L67.8558 11.1524L67.8425 11.1524Z" fill="rgb(255,255,255)" fill-rule="nonzero" />
</svg>
