<svg width="102" height="20" viewBox="0 0 102 20" fill="none" xmlns="http://www.w3.org/2000/svg">
<g clip-path="url(#clip0_77_773)">
<path d="M27.4725 0C21.8659 0 17.3296 3.84458 17.3296 10.0102C17.3296 16.1145 21.8659 19.9693 27.4725 19.9693C33.0792 19.9693 37.6154 16.1247 37.6154 10.0102C37.6052 3.84458 33.069 0 27.4725 0ZM27.4725 15.1431C24.5978 15.1431 22.8547 12.8323 22.8547 9.97955C22.8547 7.12679 24.5978 4.80573 27.4725 4.80573C30.3472 4.80573 32.1005 7.11656 32.1005 9.96933C32.1005 12.8323 30.3472 15.1431 27.4725 15.1431ZM100.257 15.0409L100.226 7.57669C100.226 3.19018 98.1569 0.0102249 90.6848 0.0102249C88.2179 0.0102249 85.9548 0.541922 84.1811 1.40082V5.6135C85.4247 4.86708 87.4125 4.16155 89.9712 4.16155C92.6726 4.16155 94.8541 5.05112 94.8541 7.57669V8.16973C93.7022 7.41309 91.9081 6.93252 89.8183 6.93252C85.384 6.93252 82.4379 9.84663 82.4379 13.4458C82.4379 17.045 85.2311 19.9591 89.6654 19.9591C92.4789 19.9591 94.6298 18.8037 95.8327 17.045C96.0264 18.5685 96.8827 19.9591 99.4821 19.9591C100.389 19.9591 101.246 19.7955 101.99 19.5399V16.5337C101.032 16.5337 100.257 16.0736 100.257 15.0409ZM91.011 15.7055C89.1353 15.7055 87.9121 14.5603 87.9121 13.1391C87.9121 11.7178 88.9518 10.501 91.0824 10.501C93.1211 10.501 94.8643 11.6973 94.8643 11.6973C94.8643 13.6299 93.7226 15.7055 91.011 15.7055ZM0 5.22495H5.58625V19.5399H10.9482V5.22495H16.5345V0.419223H0V5.22495ZM79.8691 0.419223H74.4867C74.4867 5.2454 72.1931 7.55624 68.8087 7.55624H67.2796V0.419223H61.8871V19.5399H67.2796V11.9632H70.3378L74.8333 19.5399H80.7661L75.2513 10.3579C77.9322 8.49693 79.8691 5.03067 79.8691 0.419223ZM52.0296 8.57873C51.0917 9.04908 49.736 9.36605 48.6248 9.36605C46.5962 9.36605 45.0774 7.70961 45.0774 5.80777C45.0774 4.4683 45.0774 0.449898 45.0774 0.449898H39.6848V5.80777C39.6848 11.4622 43.0794 13.8957 47.8195 13.8957C49.2467 13.8957 50.8471 13.5378 52.05 13.1288V19.5399H57.4323V0.419223H52.0398V8.57873H52.0296Z" fill="white"/>
</g>
<defs>
<clipPath id="clip0_77_773">
<rect width="102" height="20" fill="white"/>
</clipPath>
</defs>
</svg>
