<svg width="38" height="35" viewBox="0 0 38 35" fill="none" xmlns="http://www.w3.org/2000/svg">
<path d="M18.7666 34C8.88781 34 1 26.5481 1 17.5C1 8.45194 8.88781 1 18.7666 1C28.6452 1.00017 36.5322 8.45204 36.5322 17.5C36.5322 26.548 28.6452 33.9998 18.7666 34Z" stroke="#A92820" stroke-width="2"/>
<path d="M25.7373 19C26.2896 19 26.7373 18.5523 26.7373 18C26.7373 17.4477 26.2896 17 25.7373 17V18V19ZM11.0898 17.2929C10.6992 17.6834 10.6992 18.3166 11.0898 18.7071L17.4537 25.0711C17.8443 25.4616 18.4774 25.4616 18.8679 25.0711C19.2585 24.6805 19.2585 24.0474 18.8679 23.6569L13.2111 18L18.8679 12.3431C19.2585 11.9526 19.2585 11.3195 18.8679 10.9289C18.4774 10.5384 17.8443 10.5384 17.4537 10.9289L11.0898 17.2929ZM25.7373 18V17H11.7969V18V19H25.7373V18Z" fill="#A92820"/>
</svg>
