<svg width="38" height="35" viewBox="0 0 38 35" fill="none" xmlns="http://www.w3.org/2000/svg">
<g opacity="0.5">
<path d="M18.7656 34C28.6444 34 36.5322 26.5481 36.5322 17.5C36.5322 8.45194 28.6444 1 18.7656 1C8.88698 1.00017 1 8.45204 1 17.5C1 26.548 8.88698 33.9998 18.7656 34Z" stroke="#A92820" stroke-width="2"/>
<path d="M11.7949 19C11.2426 19 10.7949 18.5523 10.7949 18C10.7949 17.4477 11.2426 17 11.7949 17V18V19ZM26.4425 17.2929C26.833 17.6834 26.833 18.3166 26.4425 18.7071L20.0785 25.0711C19.688 25.4616 19.0548 25.4616 18.6643 25.0711C18.2738 24.6805 18.2738 24.0474 18.6643 23.6569L24.3211 18L18.6643 12.3431C18.2738 11.9526 18.2738 11.3195 18.6643 10.9289C19.0548 10.5384 19.688 10.5384 20.0785 10.9289L26.4425 17.2929ZM11.7949 18V17L25.7353 17V18V19L11.7949 19V18Z" fill="#A92820"/>
</g>
</svg>
