<svg width="38" height="35" viewBox="0 0 38 35" fill="none" xmlns="http://www.w3.org/2000/svg">
<path d="M18.7656 1C28.6444 1 36.5322 8.45194 36.5322 17.5C36.5322 26.5481 28.6444 34 18.7656 34C8.88698 33.9998 1 26.548 1 17.5C1 8.45204 8.88698 1.00017 18.7656 1Z" stroke="#A92820" stroke-width="2"/>
<path d="M11.7949 16C11.2426 16 10.7949 16.4477 10.7949 17C10.7949 17.5523 11.2426 18 11.7949 18V17V16ZM26.4425 17.7071C26.833 17.3166 26.833 16.6834 26.4425 16.2929L20.0785 9.92893C19.688 9.53841 19.0548 9.53841 18.6643 9.92893C18.2738 10.3195 18.2738 10.9526 18.6643 11.3431L24.3211 17L18.6643 22.6569C18.2738 23.0474 18.2738 23.6805 18.6643 24.0711C19.0548 24.4616 19.688 24.4616 20.0785 24.0711L26.4425 17.7071ZM11.7949 17V18L25.7353 18V17V16L11.7949 16V17Z" fill="#A92820"/>
</svg>
