<svg width="38" height="35" viewBox="0 0 38 35" fill="none" xmlns="http://www.w3.org/2000/svg">
<g opacity="0.5">
<path d="M18.7666 1C8.88781 1 1 8.45194 1 17.5C1 26.5481 8.88781 34 18.7666 34C28.6452 33.9998 36.5322 26.548 36.5322 17.5C36.5322 8.45204 28.6452 1.00017 18.7666 1Z" stroke="#A92820" stroke-width="2"/>
<path d="M25.7373 16C26.2896 16 26.7373 16.4477 26.7373 17C26.7373 17.5523 26.2896 18 25.7373 18V17V16ZM11.0898 17.7071C10.6992 17.3166 10.6992 16.6834 11.0898 16.2929L17.4537 9.92893C17.8443 9.53841 18.4774 9.53841 18.8679 9.92893C19.2585 10.3195 19.2585 10.9526 18.8679 11.3431L13.2111 17L18.8679 22.6569C19.2585 23.0474 19.2585 23.6805 18.8679 24.0711C18.4774 24.4616 17.8443 24.4616 17.4537 24.0711L11.0898 17.7071ZM25.7373 17V18L11.7969 18V17V16L25.7373 16V17Z" fill="#A92820"/>
</g>
</svg>
